# xmcd CD database file
#
# Track frame offsets:
#	151
#	18918
#	45716
#	71461
#	79316
#	150136
#
# Disc length: 2615 seconds
#
# Revision: 3
# Processed by: cddbd v1.5.2PL0 Copyright (c) Steve Scherf et al.
# Submitted via: CDex 1.51
#
DISCID=3a0a3506
DTITLE=Bobby BeauSoleil and The Freedom Orchestra - Lucifer Rising CD1 - Original Motion Picture Soundtrack
DYEAR=2004
DGENRE=Soundtrack
TTITLE0=Lucifer Rising - Part I
TTITLE1=Lucifer Rising - Part II
TTITLE2=Lucifer Rising - Part III
TTITLE3=Lucifer Rising - Part IV
TTITLE4=Lucifer Rising - Part V
TTITLE5=Lucifer Rising - Part VI
EXTD=YEAR: 2004
EXTT0=
EXTT1=
EXTT2=
EXTT3=
EXTT4=
EXTT5=
PLAYORDER=
